<?xml version="1.0" encoding="UTF-8" standalone="no" ?>
<!DOCTYPE svg PUBLIC "-//W3C//DTD SVG 1.1//EN" "http://www.w3.org/Graphics/SVG/1.1/DTD/svg11.dtd">
<svg xmlns="http://www.w3.org/2000/svg" xmlns:xlink="http://www.w3.org/1999/xlink" version="1.1" width="1080" height="1080" viewBox="0 0 1080 1080" xml:space="preserve">
<desc>Created with Fabric.js 5.2.4</desc>
<defs>
</defs>
<g transform="matrix(1 0 0 1 540 540)" id="bd58b3a0-8ff4-402a-9901-f364d9016562"  >
</g>
<g transform="matrix(1 0 0 1 540 540)" id="91ad4673-130e-4878-bdc3-e291b7197302"  >
<rect style="stroke: none; stroke-width: 1; stroke-dasharray: none; stroke-linecap: butt; stroke-dashoffset: 0; stroke-linejoin: miter; stroke-miterlimit: 4; fill: rgb(255,255,255); fill-rule: nonzero; opacity: 1; visibility: hidden;" vector-effect="non-scaling-stroke"  x="-540" y="-540" rx="0" ry="0" width="1080" height="1080" />
</g>
<g transform="matrix(1 0 0 1 540 540)"  >
<g style="" vector-effect="non-scaling-stroke"   >
		<g transform="matrix(1 0 0 1 0 0)"  >
<path style="stroke: none; stroke-width: 1; stroke-dasharray: none; stroke-linecap: butt; stroke-dashoffset: 0; stroke-linejoin: miter; stroke-miterlimit: 4; fill: rgb(255,255,255); fill-rule: evenodd; opacity: 1;" vector-effect="non-scaling-stroke"  transform=" translate(-399.81, -299.6)" d="M 105.6 129.3 L 105.6 156.3 L 131 156.3 L 131 222.20000000000002 L 166.4 222.20000000000002 L 166.4 156.3 L 191.8 156.3 L 191.8 129.3 L 105.6 129.3 z M 220.3 129.3 L 184.4 222.20000000000002 L 220.2 222.20000000000002 L 239.7 166 L 259.3 222.2 L 295.1 222.2 L 259.3 129.29999999999998 L 220.3 129.29999999999998 z M 287.7 129.3 L 287.7 156.3 L 313 156.3 L 313 222.20000000000002 L 348.4 222.20000000000002 L 348.4 156.3 L 373.79999999999995 156.3 L 373.79999999999995 129.3 L 287.7 129.3 L 287.7 129.3 z M 402.3 129.3 L 366.3 222.20000000000002 L 402.2 222.20000000000002 L 421.8 166 L 441.3 222.2 L 477.1 222.2 L 441.3 129.29999999999998 L 402.3 129.29999999999998 z M 105.6 361.6 C 105.6 298.8 139.5 268.6 198.8 268.6 C 234.8 268.6 258.3 281.3 270.5 297.20000000000005 C 272.9 300.40000000000003 273.8 303.00000000000006 273.8 305.90000000000003 C 273.8 313.6 266.6 319.90000000000003 257.7 319.90000000000003 C 253.5 319.90000000000003 249.39999999999998 318.3 245.5 314.6 C 233.3 302.70000000000005 220.5 296.1 198.8 296.1 C 159.20000000000002 296.1 141.3 317.8 141.3 361.6 C 141.3 408 159.20000000000002 426.8 198.8 426.8 C 220.8 426.8 232.70000000000002 422.3 247 409.3 C 251.8 405.1 255.6 403.5 259.8 403.5 C 268.7 403.5 275.90000000000003 409.9 275.90000000000003 417.8 C 275.90000000000003 420.7 274.8 423.5 272.90000000000003 425.8 C 258.6 442.8 230.60000000000002 454.40000000000003 198.80000000000004 454.40000000000003 C 139.5 454.4 105.6 426.6 105.6 361.6 M 384.9 425 C 392.79999999999995 424.8 399.5 431 399.7 439 C 399.7 439.3 399.7 439.5 399.7 439.8 C 399.7 448.3 393.59999999999997 454.6 384.9 454.6 L 306.5 454.6 C 297.7 454.6 291.4 448.1 291.4 439.3 L 291.4 284.4 C 291.4 275.7 298.29999999999995 268.59999999999997 306.79999999999995 268.59999999999997 C 315.29999999999995 268.59999999999997 322.19999999999993 275.7 322.19999999999993 284.4 L 322.19999999999993 425 L 384.9 425 z M 461.7 438 C 461.7 447.1 454.8 454.4 446.2 454.4 C 437.7 454.4 430.7 447 430.7 438 L 430.7 331.5 C 430.7 322.5 437.59999999999997 315.1 446.2 315.1 C 454.8 315.1 461.7 322.5 461.7 331.5 C 461.7 331.5 461.7 438 461.7 438 z M 677.9 469.9 C 673.6 469.9 669.6 468.2 666.6 465.2 L 645 443.6 L 638.7 447.40000000000003 C 637.4000000000001 448.20000000000005 636.1 449.00000000000006 634.8000000000001 449.70000000000005 L 634.3000000000001 449.90000000000003 C 624.7 454.8 614.5000000000001 458.20000000000005 603.8000000000001 459.90000000000003 C 599.0000000000001 460.70000000000005 594.2 461.00000000000006 589.3000000000001 461.00000000000006 C 581.2 461.00000000000006 573.2 460.00000000000006 565.3000000000001 458.00000000000006 C 553.3000000000001 454.80000000000007 541.9000000000001 449.40000000000003 531.9000000000001 442.1000000000001 C 521.8000000000001 434.80000000000007 513.3000000000001 425.50000000000006 506.80000000000007 414.9000000000001 C 505.1000000000001 412.2000000000001 503.50000000000006 409.30000000000007 502.1000000000001 406.5000000000001 C 498.30000000000007 398.4000000000001 495.6000000000001 389.9000000000001 494.1000000000001 381.10000000000014 L 493.9000000000001 380.20000000000016 L 493.7000000000001 379.10000000000014 L 493.5000000000001 377.60000000000014 C 492.9000000000001 373.40000000000015 492.60000000000014 369.10000000000014 492.60000000000014 364.90000000000015 C 492.60000000000014 356.90000000000015 493.60000000000014 349.00000000000017 495.60000000000014 341.3000000000001 C 498.8000000000001 329.2000000000001 504.3000000000001 317.90000000000015 511.8000000000001 307.90000000000015 C 519.3000000000002 297.90000000000015 528.7000000000002 289.40000000000015 539.4000000000001 282.90000000000015 C 543.5000000000001 280.3000000000001 548.0000000000001 278.00000000000017 552.6000000000001 276.10000000000014 C 559.9000000000001 273.10000000000014 567.5000000000001 270.90000000000015 575.4000000000001 269.70000000000016 C 588.4000000000001 267.8000000000002 601.6000000000001 268.50000000000017 614.2 271.90000000000015 L 614.5 271.90000000000015 C 615.5 272.20000000000016 616.5 272.40000000000015 617.4 272.70000000000016 L 617.6999999999999 272.8000000000002 C 637.8 279.20000000000016 655.1999999999999 291.9000000000002 667.4 309.1000000000002 C 668.9 311.2000000000002 670.1 313.1000000000002 671.1999999999999 315.00000000000017 C 676.1999999999999 323.20000000000016 679.9 332.00000000000017 682.1999999999999 341.1000000000002 C 683.0999999999999 344.8000000000002 683.9 348.7000000000002 684.4 352.8000000000002 C 685.6999999999999 364.70000000000016 685 376.70000000000016 682.3 388.3000000000002 C 680 397.6000000000002 676.3 406.4000000000002 671.4 414.6000000000002 L 667.6999999999999 420.9000000000002 L 689.3 442.6000000000002 C 695.5999999999999 449.00000000000017 695.5999999999999 458.9000000000002 689.3 465.3000000000002 C 686.2 468.2 682.1 469.9 677.9 469.9 M 590.1 295 C 586.6 295 583.1 295.3 579.6 295.8 C 570.2 297.3 561.2 300.5 553.1 305.40000000000003 L 552.9 305.50000000000006 C 544.8 310.70000000000005 538.4 316.6000000000001 533.1 323.80000000000007 C 527.6 331.00000000000006 523.6 339.30000000000007 521.4 348.20000000000005 C 518.9 357.00000000000006 518.4 366.20000000000005 519.9 375.30000000000007 C 521.3 384.80000000000007 524.4 393.20000000000005 529.3 401.1000000000001 C 533.9 408.7000000000001 540.3 415.50000000000006 547.5 420.80000000000007 C 567.3 435.6000000000001 593.4 438.9000000000001 616.2 429.4000000000001 C 627.9000000000001 424.5000000000001 638 416.4000000000001 645.4000000000001 406.1000000000001 C 650.6000000000001 399.1000000000001 654.4000000000001 391.00000000000006 656.7 381.9000000000001 C 658.9000000000001 372.7000000000001 659.4000000000001 363.5000000000001 658.1 354.5000000000001 C 655.1 335.9000000000001 645.5 319.7000000000001 631 308.8000000000001 C 619.2 299.8 604.8 294.9 590.1 295" stroke-linecap="round" />
</g>
		<g transform="matrix(1 0 0 1 46.61 -15.21)"  >
<path style="stroke: none; stroke-width: 1; stroke-dasharray: none; stroke-linecap: butt; stroke-dashoffset: 0; stroke-linejoin: miter; stroke-miterlimit: 4; fill: rgb(255,255,255); fill-rule: evenodd; opacity: 1;" vector-effect="non-scaling-stroke"  transform=" translate(-446.42, -284.39)" d="M 471.6 282.3 C 479.1 289.8 479.1 302 471.6 309.5 C 464.1 317 451.90000000000003 317 444.40000000000003 309.5 L 420.90000000000003 286 C 413.6 278.3 413.90000000000003 266.2 421.6 258.9 C 429 251.89999999999998 440.6 251.89999999999998 448 258.9 L 471.6 282.3 L 471.6 282.3 z" stroke-linecap="round" />
</g>
</g>
</g>
</svg>