<?xml version="1.0" encoding="utf-8"?>
<!-- Generator: Adobe Illustrator 26.0.3, SVG Export Plug-In . SVG Version: 6.00 Build 0)  -->
<svg version="1.0" id="katman_1" xmlns="http://www.w3.org/2000/svg" xmlns:xlink="http://www.w3.org/1999/xlink" x="0px" y="0px"
	 viewBox="0 0 800 600" style="enable-background:new 0 0 800 600;" xml:space="preserve">
<style type="text/css">
	.st0{fill-rule:evenodd;clip-rule:evenodd;fill:#1D1D1B;}
	.st1{fill-rule:evenodd;clip-rule:evenodd;fill:#FF1744;}
</style>
<path class="st0" d="M105.6,129.3v27H131v65.9h35.4v-65.9h25.4v-27H105.6z M220.3,129.3l-35.9,92.9h35.8l19.5-56.2l19.6,56.2h35.8
	l-35.8-92.9H220.3z M287.7,129.3v27H313v65.9h35.4v-65.9h25.4v-27H287.7L287.7,129.3z M402.3,129.3l-36,92.9h35.9l19.6-56.2
	l19.5,56.2h35.8l-35.8-92.9H402.3z M105.6,361.6c0-62.8,33.9-93,93.2-93c36,0,59.5,12.7,71.7,28.6c2.4,3.2,3.3,5.8,3.3,8.7
	c0,7.7-7.2,14-16.1,14c-4.2,0-8.3-1.6-12.2-5.3c-12.2-11.9-25-18.5-46.7-18.5c-39.6,0-57.5,21.7-57.5,65.5
	c0,46.4,17.9,65.2,57.5,65.2c22,0,33.9-4.5,48.2-17.5c4.8-4.2,8.6-5.8,12.8-5.8c8.9,0,16.1,6.4,16.1,14.3c0,2.9-1.1,5.7-3,8
	c-14.3,17-42.3,28.6-74.1,28.6C139.5,454.4,105.6,426.6,105.6,361.6 M384.9,425c7.9-0.2,14.6,6,14.8,14c0,0.3,0,0.5,0,0.8
	c0,8.5-6.1,14.8-14.8,14.8h-78.4c-8.8,0-15.1-6.5-15.1-15.3V284.4c0-8.7,6.9-15.8,15.4-15.8c8.5,0,15.4,7.1,15.4,15.8V425H384.9z
	 M461.7,438c0,9.1-6.9,16.4-15.5,16.4c-8.5,0-15.5-7.4-15.5-16.4V331.5c0-9,6.9-16.4,15.5-16.4c8.6,0,15.5,7.4,15.5,16.4
	C461.7,331.5,461.7,438,461.7,438z M677.9,469.9c-4.3,0-8.3-1.7-11.3-4.7L645,443.6l-6.3,3.8c-1.3,0.8-2.6,1.6-3.9,2.3l-0.5,0.2
	c-9.6,4.9-19.8,8.3-30.5,10c-4.8,0.8-9.6,1.1-14.5,1.1c-8.1,0-16.1-1-24-3c-12-3.2-23.4-8.6-33.4-15.9
	c-10.1-7.3-18.6-16.6-25.1-27.2c-1.7-2.7-3.3-5.6-4.7-8.4c-3.8-8.1-6.5-16.6-8-25.4l-0.2-0.9l-0.2-1.1l-0.2-1.5
	c-0.6-4.2-0.9-8.5-0.9-12.7c0-8,1-15.9,3-23.6c3.2-12.1,8.7-23.4,16.2-33.4c7.5-10,16.9-18.5,27.6-25c4.1-2.6,8.6-4.9,13.2-6.8
	c7.3-3,14.9-5.2,22.8-6.4c13-1.9,26.2-1.2,38.8,2.2l0.3,0c1,0.3,2,0.5,2.9,0.8l0.3,0.1c20.1,6.4,37.5,19.1,49.7,36.3
	c1.5,2.1,2.7,4,3.8,5.9c5,8.2,8.7,17,11,26.1c0.9,3.7,1.7,7.6,2.2,11.7c1.3,11.9,0.6,23.9-2.1,35.5c-2.3,9.3-6,18.1-10.9,26.3
	l-3.7,6.3l21.6,21.7c6.3,6.4,6.3,16.3,0,22.7C686.2,468.2,682.1,469.9,677.9,469.9 M590.1,295c-3.5,0-7,0.3-10.5,0.8
	c-9.4,1.5-18.4,4.7-26.5,9.6l-0.2,0.1c-8.1,5.2-14.5,11.1-19.8,18.3c-5.5,7.2-9.5,15.5-11.7,24.4c-2.5,8.8-3,18-1.5,27.1
	c1.4,9.5,4.5,17.9,9.4,25.8c4.6,7.6,11,14.4,18.2,19.7c19.8,14.8,45.9,18.1,68.7,8.6c11.7-4.9,21.8-13,29.2-23.3
	c5.2-7,9-15.1,11.3-24.2c2.2-9.2,2.7-18.4,1.4-27.4c-3-18.6-12.6-34.8-27.1-45.7C619.2,299.8,604.8,294.9,590.1,295"/>
<path class="st1" d="M471.6,282.3c7.5,7.5,7.5,19.7,0,27.2s-19.7,7.5-27.2,0l-23.5-23.5c-7.3-7.7-7-19.8,0.7-27.1c7.4-7,19-7,26.4,0
	L471.6,282.3L471.6,282.3z"/>
</svg>
